HIERARCHY
ROOT RootJoint
{
    OFFSET   0.000000   0.000000   0.000000
    CHANNELS 6 Xposition Yposition Zposition Xrotation Yrotation Zrotation
    JOINT pelvis_lowerback
    {
        OFFSET   0.000000   0.093605   0.000000
        CHANNELS 3 Xrotation Yrotation Zrotation
        JOINT lowerback_torso
        {
            OFFSET   0.000000   0.100000   0.000000
            CHANNELS 3 Xrotation Yrotation Zrotation
            JOINT torso_head
            {
                OFFSET   0.000000   0.282350   0.000000
                CHANNELS 3 Xrotation Yrotation Zrotation
                End Site
                {
                    OFFSET   0.000000   0.192650   0.000000
                }
            }
            JOINT rTorso_Clavicle
            {
                OFFSET  -0.001000   0.157500   0.000000
                CHANNELS 3 Xrotation Yrotation Zrotation
                JOINT rShoulder
                {
                    OFFSET  -0.117647   0.000000   0.000000
                    CHANNELS 3 Xrotation Yrotation Zrotation
                    JOINT rElbow
                    {
                        OFFSET  -0.245000   0.000000   0.000000
                        CHANNELS 3 Xrotation Yrotation Zrotation
                        JOINT rWrist
                        {
                            OFFSET  -0.240000   0.000000   0.000000
                            CHANNELS 3 Xrotation Yrotation Zrotation
                            End Site
                            {
                                OFFSET  -0.116353  -0.002500   0.000000
                            }
                        }
                    }
                }
            }
            JOINT lTorso_Clavicle
            {
                OFFSET   0.001000   0.157500   0.000000
                CHANNELS 3 Xrotation Yrotation Zrotation
                JOINT lShoulder
                {
                    OFFSET   0.117647   0.000000   0.000000
                    CHANNELS 3 Xrotation Yrotation Zrotation
                    JOINT lElbow
                    {
                        OFFSET   0.245000   0.000000   0.000000
                        CHANNELS 3 Xrotation Yrotation Zrotation
                        JOINT lWrist
                        {
                            OFFSET   0.240000   0.000000   0.000000
                            CHANNELS 3 Xrotation Yrotation Zrotation
                            End Site
                            {
                                OFFSET   0.116353  -0.002500   0.000000
                            }
                        }
                    }
                }
            }
        }
    }
    JOINT rHip
    {
        OFFSET  -0.100000  -0.051395   0.000000
        CHANNELS 3 Xrotation Yrotation Zrotation
        JOINT rKnee
        {
            OFFSET   0.000000  -0.410000   0.000000
            CHANNELS 3 Xrotation Yrotation Zrotation
            JOINT rAnkle
            {
                OFFSET   0.000000  -0.390000   0.000000
                CHANNELS 3 Xrotation Yrotation Zrotation
                JOINT rToeJoint
                {
                    OFFSET   0.000000  -0.050000   0.130000
                    CHANNELS 3 Xrotation Yrotation Zrotation
                    End Site
                    {
                        OFFSET  -0.010000   0.002000   0.060000
                    }
                }
            }
        }
    }
    JOINT lHip
    {
        OFFSET   0.100000  -0.051395   0.000000
        CHANNELS 3 Xrotation Yrotation Zrotation
        JOINT lKnee
        {
            OFFSET   0.000000  -0.410000   0.000000
            CHANNELS 3 Xrotation Yrotation Zrotation
            JOINT lAnkle
            {
                OFFSET   0.000000  -0.390000   0.000000
                CHANNELS 3 Xrotation Yrotation Zrotation
                JOINT lToeJoint
                {
                    OFFSET   0.000000  -0.050000   0.130000
                    CHANNELS 3 Xrotation Yrotation Zrotation
                    End Site
                    {
                        OFFSET   0.010000   0.002000   0.060000
                    }
                }
            }
        }
    }
}
MOTION
Frames: 17
Frame Time:   0.008333
 -2.376719   0.925631   3.975860   0.000000   0.000000   0.000000   0.000000   0.000000   0.000000   0.000000   0.000000   0.000000   0.000000   0.000000   0.000000   0.000000   0.000000   0.000000   0.000000   0.000000   0.000000   0.000000   0.000000   0.000000   0.000000   0.000000   0.000000   0.000000   0.000000   0.000000   0.000000   0.000000   0.000000   0.000000   0.000000   0.000000   0.000000   0.000000   0.000000   0.000000   0.000000   0.000000   0.000000   0.000000   0.000000   0.000000   0.000000   0.000000   0.000000   0.000000   0.000000   0.000000   0.000000   0.000000   0.000000   0.000000   0.000000   0.000000   0.000000   0.000000   0.000000   0.000000   0.000000
 -2.376915   0.926570   3.975358   0.377177   0.152678   0.030180  -0.589406   0.102303  -0.201519   0.370594  -0.271641   0.137789  -0.153648   0.047687   0.142148   0.335108  -0.305149   1.073846   0.663719   0.105288   1.541282   0.019954   0.881927  -0.009001   0.700710  -0.385052  -3.204028   0.509652  -0.015624  -1.150464   1.354460   0.205953  -1.496632   0.016914  -0.720475   0.012822   0.676023   0.206835   3.181785  -0.752471   0.142184  -0.096739   0.866508   0.000512   0.002221  -0.660775  -0.081824  -0.015226  -0.119629  -0.000082  -0.000222  -0.765275  -0.236628   0.104682   0.898496  -0.001081  -0.000649  -1.017181   0.248466  -0.027816   0.296489  -0.000277   0.000423
 -2.377229   0.928064   3.974772   0.700943   0.362997   0.063402  -1.099264   0.173080  -0.426275   0.774136  -0.578938   0.260736  -0.292500   0.093387   0.288933   0.666094  -0.569995   3.011643   1.283414   0.245591   3.679444   0.046083   1.732693  -0.015864   1.425867  -0.581306  -5.593929   1.004710  -0.106891  -3.173766   2.637444   0.323577  -3.608233   0.039268  -1.413836   0.022546   1.403633   0.293133   5.533599  -1.476555   0.289545  -0.258552   1.750326   0.001465   0.004488  -1.278184  -0.157091  -0.030439  -0.264173  -0.000240  -0.000532  -1.477016  -0.466013   0.309393   1.808047  -0.002829  -0.000605  -1.971180   0.483970  -0.049002   0.511184  -0.000633   0.000744
 -2.377617   0.929592   3.974184   1.001359   0.585755   0.099639  -1.552558   0.219853  -0.659521   1.172495  -0.891307   0.358171  -0.417889   0.136038   0.427133   0.983998  -0.775374   5.459053   1.853904   0.423762   6.147891   0.071128   2.534383  -0.020462   2.126295  -0.696743  -6.956121   1.458450  -0.268761  -5.712273   3.836487   0.340919  -6.063574   0.061204  -2.073642   0.029368   2.110632   0.284447   6.840522  -2.175557   0.432947  -0.476117   2.578087   0.002590   0.006134  -1.855243  -0.227363  -0.045673  -0.406822  -0.000427  -0.000789  -2.131877  -0.681218   0.591740   2.662778  -0.004740  -0.000284  -2.862429   0.706046  -0.064337   0.696423  -0.001005   0.000970
 -2.378048   0.930779   3.973651   1.289470   0.797742   0.138060  -1.962982   0.251257  -0.898094   1.552319  -1.198467   0.431846  -0.532362   0.175713   0.556129   1.286947  -0.928266   8.178103   2.377098   0.636801   8.771046   0.091941   3.289024  -0.023192   2.803017  -0.747385  -7.546173   1.864855  -0.483342  -8.527146   4.952084   0.264072  -8.682806   0.080024  -2.702152   0.033909   2.798245   0.178981   7.363037  -2.852675   0.571629  -0.738881   3.343099   0.003702   0.007093  -2.395226  -0.293245  -0.060797  -0.547232  -0.000623  -0.000972  -2.733165  -0.884694   0.934943   3.460163  -0.006560   0.000053  -3.695449   0.914961  -0.074624   0.856546  -0.001332   0.001087
 -2.378502   0.931351   3.973210   1.568552   0.987322   0.177631  -2.340520   0.272351  -1.139992   1.907875  -1.495866   0.484259  -0.636590   0.212560   0.676361   1.573283  -1.041582  11.009040   2.854827   0.875153  11.432186   0.107358   3.997938  -0.024401   3.456943  -0.745533  -7.620081   2.221922  -0.731220 -11.458390   5.984955   0.108312 -11.346212   0.094582  -3.299563   0.036644   3.466337  -0.009222   7.361660  -3.506432   0.705747  -1.036666   4.049137   0.004693   0.007465  -2.900427  -0.355074  -0.075685  -0.683488  -0.000811  -0.001078  -3.282041  -1.078279   1.325365   4.205424  -0.008160   0.000304  -4.473879   1.111099  -0.080649   0.996102  -0.001592   0.001114
 -2.378964   0.931118   3.972885   1.838935   1.148876   0.217606  -2.692677   0.286056  -1.383624   2.236887  -1.781626   0.517568  -0.731274   0.246760   0.788265   1.843237  -1.129078  13.846183   3.289703   1.127307  14.056256   0.117315   4.661881  -0.024404   4.086837  -0.707522  -7.370082   2.531533  -0.994575 -14.400368   6.937177  -0.108098 -13.976969   0.104647  -3.865219   0.037951   4.112001  -0.258541   7.031594  -4.134449   0.835589  -1.360357   4.701648   0.005506   0.007390  -3.372863  -0.413093  -0.090245  -0.813740  -0.000975  -0.001114  -3.779628  -1.263038   1.751410   4.904051  -0.009485   0.000443  -5.201055   1.294958  -0.083125   1.119132  -0.001780   0.001074
 -2.379378   0.929382   3.972247   1.947318   1.189675   0.055700  -2.864369   0.335526  -1.324674   2.700600  -1.989827   0.540666  -0.979361   0.152221   0.856008   2.118864  -0.876444  16.245450   3.756603   1.248606  15.977932   0.126987   5.526911  -0.028072   4.658831  -0.783748  -5.911799   2.836797  -1.286104 -16.738927   7.725126  -0.541928 -16.348593   0.116032  -4.610203   0.042002   4.662103  -0.487362   5.541255  -4.793901   0.874761  -1.413571   6.040790   0.007183   0.006467  -3.987416  -0.412225   0.084831  -0.919830  -0.000820  -0.000963  -4.045456  -1.156689   2.372326   5.119069  -0.008434   0.000771  -5.534133   1.414234  -0.008210   1.136440  -0.001504   0.000905
 -2.379728   0.926366   3.971494   2.028949   1.272564  -0.131742  -2.986381   0.365306  -1.232311   3.164005  -2.185512   0.582678  -1.204890   0.057556   0.926141   2.333549  -0.556027  18.231525   4.175039   1.425692  17.581931   0.128435   6.357990  -0.030541   5.231582  -0.745822  -4.686524   3.078922  -1.636135 -18.706229   8.430833  -1.024323 -18.403179   0.119914  -5.333817   0.044327   5.206242  -0.871957   4.211232  -5.369043   0.897789  -1.412787   7.392651   0.008201   0.006048  -4.554401  -0.413196   0.249002  -1.004622  -0.000673  -0.000847  -4.352514  -1.053645   2.971250   5.249533  -0.007204   0.000919  -5.844647   1.526412   0.063151   1.175389  -0.001365   0.000838
 -2.380024   0.922221   3.970734   2.104253   1.373660  -0.315195  -3.084731   0.398206  -1.137420   3.600411  -2.362541   0.627427  -1.409898  -0.031351   0.995096   2.501439  -0.214451  19.912757   4.550969   1.627106  18.951735   0.124654   7.146734  -0.031774   5.790277  -0.642006  -3.773041   3.273736  -2.001038 -20.387622   9.066524  -1.513471 -20.200749   0.118473  -6.019701   0.044846   5.730169  -1.307192   3.171322  -5.859019   0.918584  -1.392086   8.679970   0.008633   0.005858  -5.081729  -0.415105   0.402418  -1.075572  -0.000544  -0.000751  -4.706578  -0.959951   3.518731   5.336963  -0.006034   0.000946  -6.135514   1.630778   0.130397   1.213157  -0.001232   0.000783
 -2.380235   0.921072   3.970295   2.129016   1.503013   0.078114  -3.170534   0.450383  -1.520785   4.037267  -2.520040   0.484880  -1.596350  -0.114807   1.046637   2.631327   0.140351  21.656394   4.888835   1.848717  20.270049   0.119768   7.885880  -0.031946   6.328052  -0.536939  -3.097955   3.429033  -2.365779 -22.003497   9.639618  -1.994339 -21.816762   0.114801  -6.653413   0.043769   6.225630  -1.669222   2.435074  -6.179664   0.956958  -1.869317   9.874003   0.008005   0.005594  -5.563226  -0.421641   0.542397  -1.061458  -0.000441  -0.000589  -5.207067  -0.752496   3.146045   6.041966  -0.004848   0.002866  -5.705071   1.815413  -0.020542   1.290787  -0.000918   0.000973
 -2.380858   0.920531   3.970123   2.187835   1.549290   0.240160  -3.291885   0.539616  -1.647319   4.414242  -2.633041   0.389207  -1.769996  -0.191603   1.081645   2.740572   0.478855  23.147032   5.198461   2.069249  21.448820   0.112789   8.583686  -0.031204   6.845704  -0.382001  -2.446763   3.575531  -2.690084 -23.460490  10.165586  -2.452293 -23.333101   0.109011  -7.249913   0.041683   6.696391  -2.053907   1.706839  -6.477366   0.989207  -1.974723  11.006732   0.006031   0.004938  -6.015081  -0.426865   0.674187  -1.070568  -0.000338  -0.000475  -5.565008  -0.617756   3.028929   6.541251  -0.004000   0.003143  -5.661717   1.925521  -0.031648   1.381203  -0.000767   0.001011
 -2.381763   0.920215   3.970059   2.289170   1.590173   0.313324  -3.429371   0.631027  -1.696892   4.739088  -2.724336   0.338077  -1.938296  -0.263814   1.122684   2.830925   0.799054  24.444946   5.481727   2.280976  22.489668   0.104441   9.237416  -0.029946   7.341079  -0.214557  -1.902041   3.711203  -2.984009 -24.757106  10.649279  -2.880887 -24.712555   0.101624  -7.805033   0.038950   7.142208  -2.427136   1.047556  -6.759713   1.008608  -1.917182  12.072668   0.003766   0.004503  -6.438728  -0.430961   0.798798  -1.095030  -0.000216  -0.000389  -5.878686  -0.514669   3.019228   6.905017  -0.003354   0.003028  -5.709929   2.016860  -0.016204   1.438545  -0.000654   0.000931
 -2.382898   0.919915   3.969855   2.371785   1.626320   0.414337  -3.398337   0.705668  -1.805178   4.962914  -2.754259   0.325424  -2.112387  -0.415536   1.127129   2.918891   1.084521  25.311231   5.675135   2.485681  23.170667   0.093547   9.906917  -0.028740   7.702979   0.117728  -0.757297   3.840782  -3.200414 -25.489532  10.887490  -3.293862 -25.819364   0.093523  -8.462933   0.035953   7.516020  -2.873624  -0.223027  -6.817055   1.069331  -1.873066  12.326581   0.002742   0.003841  -6.806838  -0.418211   0.907798  -0.992444  -0.000401  -0.000214  -6.068488  -0.431115   2.990303   7.038587  -0.002751   0.002572  -5.635811   2.063301   0.027636   1.299062  -0.000380   0.000542
 -2.384230   0.919670   3.969455   2.497357   1.653338   0.511555  -3.337945   0.780343  -1.903433   5.161672  -2.774549   0.318529  -2.272955  -0.559087   1.126486   2.972920   1.368777  25.862933   5.843975   2.680778  23.618682   0.081356  10.537369  -0.027398   8.043809   0.465601   0.130294   3.944511  -3.411908 -25.897840  11.102406  -3.664328 -26.657949   0.083099  -9.078785   0.032966   7.860765  -3.328202  -1.223633  -6.923937   1.139127  -1.805277  12.451929   0.002038   0.003198  -7.155164  -0.394036   1.014077  -0.856146  -0.000644  -0.000025  -6.269766  -0.357833   2.975431   7.092340  -0.002234   0.002109  -5.594610   2.104762   0.073142   1.174670  -0.000165   0.000282
 -2.385725   0.919473   3.968953   2.642851   1.688026   0.598159  -3.254187   0.847038  -1.981446   5.350756  -2.794107   0.319721  -2.418605  -0.693032   1.124737   3.005962   1.641576  26.188543   5.994356   2.859915  23.896950   0.069277  11.126630  -0.025925   8.369112   0.780043   0.721782   4.032267  -3.614688 -26.083947  11.301076  -3.992724 -27.298063   0.072024  -9.648354   0.030031   8.187811  -3.721708  -1.919098  -7.062556   1.203798  -1.715681  12.536505   0.001516   0.002647  -7.482117  -0.371682   1.113703  -0.734644  -0.000810   0.000115  -6.468921  -0.293993   2.980315   7.092162  -0.001787   0.001687  -5.581714   2.142130   0.119975   1.058804   0.000008   0.000091
 -2.387361   0.919309   3.968415   2.799275   1.737996   0.675374  -3.155105   0.904332  -2.040337   5.534240  -2.815321   0.329732  -2.550709  -0.818070   1.123271   3.028720   1.895801  26.352873   6.131352   3.019134  24.053164   0.058086  11.674823  -0.024363   8.680866   1.048009   1.082110   4.110916  -3.803958 -26.115428  11.487003  -4.282194 -27.791127   0.061313 -10.173882   0.027180   8.500851  -4.044965  -2.378629  -7.216646   1.263084  -1.612395  12.601135   0.001122   0.002193  -7.788085  -0.351202   1.206981  -0.625270  -0.000912   0.000222  -6.662760  -0.238228   3.002398   7.053896  -0.001398   0.001312  -5.589444   2.175936   0.167309   0.950975   0.000146  -0.000055
